<?xml version="1.0" encoding="UTF-8" standalone="no"?>
<!-- Created with Inkscape (http://www.inkscape.org/) -->

<svg
   width="152.13559mm"
   height="144.30508mm"
   viewBox="0 0 152.13559 144.30508"
   version="1.1"
   id="svg1"
   xml:space="preserve"
   xmlns="http://www.w3.org/2000/svg"
   xmlns:svg="http://www.w3.org/2000/svg"><defs
     id="defs1" /><g
     id="layer1"
     transform="translate(-29.644075,-71.03389)"><ellipse
       style="mix-blend-mode:multiply;fill:#ffffff;fill-opacity:1;stroke-width:1.01169;stroke-linecap:round;stroke-linejoin:round;paint-order:stroke fill markers"
       id="path1"
       cx="105.71186"
       cy="143.18643"
       rx="76.067787"
       ry="72.152542" /><g
       transform="matrix(0.01755325,0,0,-0.01630618,16.121062,229.00918)"
       fill="#000000"
       stroke="none"
       id="g2"><path
         d="m 4880,9368 c -475,-20 -984,-147 -1451,-364 -71,-32 -125,-52 -136,-48 -12,4 -14,3 -5,-3 8,-7 -9,-21 -60,-47 -132,-69 -321,-186 -441,-272 -66,-46 -124,-81 -129,-77 -6,3 -8,2 -5,-4 7,-11 -64,-73 -82,-73 -6,0 -11,-4 -11,-9 0,-12 -177,-161 -191,-161 -7,0 -10,-2 -7,-5 7,-7 -222,-231 -233,-227 -5,1 -8,-2 -7,-7 5,-15 -83,-112 -94,-105 -6,4 -8,2 -5,-3 7,-11 -80,-123 -95,-123 -4,0 -8,-6 -8,-13 0,-19 -35,-49 -45,-40 -4,5 -5,2 -1,-4 4,-8 -12,-38 -40,-75 -50,-67 -73,-93 -59,-69 5,10 4,12 -4,7 -6,-4 -9,-11 -6,-16 3,-5 -21,-49 -53,-97 -99,-147 -141,-220 -242,-416 -53,-103 -100,-184 -105,-180 -4,5 -5,0 -2,-9 4,-10 -8,-52 -27,-97 -57,-133 -116,-299 -160,-453 -24,-82 -46,-145 -50,-141 -4,4 -4,0 -1,-8 3,-9 -6,-68 -20,-133 -38,-180 -73,-441 -85,-646 -11,-180 -10,-591 0,-585 3,2 12,-51 19,-118 16,-158 44,-321 82,-476 23,-98 27,-126 17,-133 -12,-7 -5,-12 13,-10 10,2 20,-58 12,-71 -3,-5 -2,-7 4,-4 5,3 24,-40 43,-101 49,-154 110,-310 180,-457 33,-71 58,-135 55,-143 -3,-8 0,-10 7,-6 8,5 9,2 5,-10 -4,-9 -3,-15 2,-11 12,7 94,-143 85,-157 -5,-7 -3,-8 6,-3 10,6 12,4 7,-9 -4,-10 -3,-15 3,-11 5,3 17,-9 26,-27 9,-18 55,-91 102,-163 47,-71 85,-135 85,-142 0,-7 3,-11 7,-10 7,2 80,-88 80,-99 0,-3 -6,-2 -12,2 -10,5 -10,3 0,-7 7,-8 18,-14 25,-14 7,0 11,-8 11,-18 -1,-9 2,-15 6,-12 4,2 48,-44 97,-103 163,-194 423,-450 575,-566 21,-15 35,-33 31,-39 -3,-5 -2,-7 4,-4 14,9 55,-22 47,-36 -4,-7 -4,-9 1,-5 11,11 47,-11 39,-24 -4,-6 -3,-8 3,-5 13,8 165,-98 155,-108 -4,-5 -2,-5 4,-2 15,8 56,-22 48,-35 -4,-7 -2,-8 4,-4 11,7 173,-85 167,-95 -2,-3 1,-6 8,-6 22,-1 177,-89 170,-97 -5,-4 -3,-6 2,-5 19,5 55,-12 49,-23 -4,-6 -2,-8 4,-5 15,10 43,-3 35,-16 -3,-6 -1,-7 5,-3 6,4 44,-9 84,-27 40,-19 138,-60 218,-92 80,-32 147,-62 148,-67 2,-4 7,-6 11,-3 4,2 50,-9 102,-26 302,-97 669,-167 965,-184 54,-3 140,-8 189,-11 50,-3 95,-5 100,-5 65,3 334,21 385,26 118,12 423,65 543,96 65,16 123,27 128,24 5,-4 9,-2 9,3 0,5 42,21 93,36 50,16 152,50 225,77 73,28 138,47 144,43 6,-4 8,-3 5,3 -9,14 155,85 179,77 14,-4 15,-3 6,4 -11,7 -10,10 3,16 9,3 22,3 28,-1 7,-3 9,-2 5,2 -11,11 150,97 165,89 7,-4 9,-4 5,1 -4,4 50,42 120,84 70,42 171,107 225,144 55,37 103,64 108,61 5,-3 8,-1 7,4 -2,5 40,42 92,82 120,92 208,167 286,243 40,38 66,57 75,52 8,-6 10,-4 5,4 -8,13 221,258 237,253 4,-1 6,2 5,7 -2,5 20,37 48,72 116,145 195,251 249,332 32,48 62,84 68,80 5,-3 7,-1 4,4 -9,14 150,289 164,285 6,-1 8,2 4,8 -4,6 25,75 64,154 134,273 228,529 296,810 194,801 137,1697 -156,2469 -16,43 -27,83 -23,89 4,6 3,8 -3,5 -9,-5 -108,213 -103,229 1,4 -3,10 -8,13 -5,3 -24,35 -42,71 -103,204 -259,455 -401,641 -48,64 -85,120 -81,124 4,4 2,5 -4,3 -14,-4 -86,81 -78,93 3,5 1,8 -4,7 -5,-2 -72,61 -147,140 -146,152 -300,290 -452,405 -51,38 -90,74 -86,80 3,5 1,7 -5,3 -11,-7 -243,146 -243,161 -1,4 -3,10 -6,13 -4,3 -3,-1 1,-7 4,-7 5,-13 3,-13 -2,0 -56,30 -118,67 -122,71 -362,189 -496,243 -57,23 -79,37 -70,43 8,6 6,7 -6,3 -11,-3 -81,15 -160,43 -78,26 -190,61 -249,77 -59,15 -104,32 -102,36 3,4 -2,5 -10,2 -9,-3 -60,3 -113,15 -324,69 -697,96 -1093,79 z m 466,-428 c 184,-11 444,-47 594,-81 154,-35 310,-81 305,-89 -3,-5 0,-12 6,-16 8,-4 9,-3 5,4 -10,17 2,15 80,-12 172,-59 407,-164 398,-177 -3,-5 2,-6 10,-3 16,6 163,-71 149,-78 -4,-3 -2,-3 6,-1 13,3 81,-33 81,-43 0,-3 -5,-2 -12,2 -7,4 -8,3 -4,-5 4,-6 11,-9 16,-6 12,8 56,-16 156,-82 61,-40 81,-59 77,-72 -4,-13 -3,-13 5,-2 8,11 26,2 88,-44 131,-97 234,-186 227,-197 -4,-7 -1,-8 6,-3 16,9 123,-93 114,-108 -4,-6 -1,-7 6,-3 17,11 165,-139 155,-156 -4,-7 -3,-10 1,-5 11,10 46,-23 38,-36 -3,-5 -2,-7 4,-4 6,4 39,-28 75,-71 96,-115 119,-148 110,-157 -4,-5 -2,-5 4,-2 16,9 128,-148 117,-166 -4,-6 -1,-7 7,-2 10,6 12,4 7,-9 -4,-9 -3,-15 2,-12 13,9 34,-21 25,-36 -4,-7 -4,-10 1,-6 11,11 58,-60 49,-74 -4,-6 -3,-8 3,-5 6,4 14,0 17,-9 4,-10 2,-13 -7,-9 -6,4 -2,-2 9,-12 21,-17 74,-102 74,-117 0,-4 -4,-5 -9,-1 -5,3 -12,1 -16,-4 -3,-6 3,-8 13,-6 18,3 24,-6 82,-123 l 21,-44 -23,6 c -19,4 -18,3 3,-6 27,-11 35,-25 111,-206 24,-60 37,-102 33,-115 -4,-15 -3,-18 3,-9 8,11 25,-29 38,-88 0,-3 6,-18 13,-35 64,-154 148,-550 176,-830 15,-154 13,-654 -4,-790 -30,-243 -88,-505 -160,-722 -65,-198 -201,-509 -216,-495 -5,4 -5,1 -1,-6 15,-25 -246,-458 -267,-445 -6,3 -7,1 -3,-5 8,-14 -33,-74 -45,-66 -5,3 -7,-1 -4,-8 6,-16 -195,-263 -215,-263 -8,-1 -14,-7 -12,-14 4,-18 -38,-62 -52,-54 -6,3 -8,2 -3,-2 10,-11 -63,-86 -76,-78 -6,3 -7,1 -4,-5 9,-13 -130,-148 -146,-144 -7,2 -9,0 -4,-4 8,-8 -20,-44 -35,-44 -5,0 -7,4 -4,8 3,5 -1,9 -9,9 -10,0 -12,-4 -5,-12 12,-15 -23,-50 -40,-40 -6,3 -9,1 -8,-6 3,-10 -25,-35 -141,-127 -18,-15 -40,-26 -47,-26 -7,1 -12,-3 -11,-8 3,-14 -225,-168 -241,-163 -8,3 -10,0 -6,-7 5,-8 2,-9 -9,-5 -9,3 -19,1 -23,-5 -4,-7 -3,-8 4,-4 7,4 12,5 12,3 0,-12 -91,-57 -102,-51 -7,5 -8,3 -3,-6 6,-10 4,-12 -9,-7 -10,4 -15,3 -11,-3 8,-12 -112,-73 -127,-64 -6,4 -8,3 -5,-3 17,-28 -493,-226 -738,-287 -318,-80 -549,-108 -885,-109 -319,-1 -508,19 -815,88 -150,34 -386,106 -379,116 3,5 -1,6 -9,3 -16,-6 -210,68 -349,133 -70,33 -95,49 -86,56 9,6 8,7 -5,3 -19,-6 -129,43 -121,55 2,4 -1,11 -7,15 -8,4 -9,3 -5,-4 4,-7 4,-12 1,-12 -14,0 -214,124 -210,130 2,4 -2,7 -9,7 -14,0 -101,58 -219,145 -124,92 -167,130 -160,141 3,5 1,7 -5,3 -6,-3 -61,40 -124,97 -146,134 -211,204 -202,219 4,6 3,8 -4,4 -27,-17 -404,466 -386,496 4,6 3,8 -4,5 -13,-9 -134,192 -127,211 2,7 0,10 -5,7 -13,-8 -81,130 -74,152 4,13 3,14 -3,5 -7,-9 -20,9 -46,66 -144,315 -244,660 -296,1017 -28,193 -29,213 -37,445 -14,441 50,888 187,1295 83,244 239,592 260,579 8,-4 9,-3 5,4 -8,14 8,46 82,169 31,51 59,90 63,88 4,-3 6,3 5,13 0,9 4,16 11,15 7,-2 10,3 8,10 -6,16 103,169 115,162 6,-3 7,0 4,8 -3,9 4,22 18,31 12,9 19,16 14,16 -5,0 -3,7 4,15 7,8 17,12 23,8 6,-3 7,-1 3,5 -10,16 171,227 310,363 149,144 302,272 316,263 7,-4 8,-2 4,4 -8,14 163,136 352,250 193,118 454,246 484,237 16,-4 19,-3 10,3 -38,26 579,221 714,225 29,1 50,5 48,8 -4,8 213,37 351,48 164,12 312,12 501,1 z"
         id="path1-3" /><path
         d="m 4875,8244 c -171,-16 -341,-51 -510,-104 -143,-46 -364,-131 -478,-184 -54,-25 -104,-43 -109,-40 -6,4 -8,3 -5,-3 8,-12 -141,-86 -155,-77 -7,5 -8,2 -3,-6 6,-10 4,-12 -9,-7 -9,4 -15,3 -12,-2 8,-12 -122,-83 -136,-75 -6,4 -8,3 -5,-3 9,-14 -109,-86 -125,-77 -6,4 -8,3 -5,-3 4,-6 -14,-25 -41,-41 -26,-17 -71,-49 -100,-71 -32,-23 -61,-38 -70,-34 -12,3 -13,2 -4,-4 15,-12 -72,-79 -97,-75 -11,2 -12,0 -4,-6 9,-6 -7,-25 -55,-64 -37,-31 -82,-73 -101,-92 -19,-19 -39,-32 -44,-29 -6,3 -7,2 -4,-4 7,-11 -36,-56 -46,-48 -4,3 -5,2 -2,-1 6,-9 -56,-80 -67,-76 -4,1 -7,-2 -6,-6 5,-14 -114,-162 -125,-155 -5,3 -7,1 -4,-5 9,-13 -118,-214 -128,-204 -5,4 -5,2 -2,-5 4,-6 -13,-53 -38,-105 -25,-51 -64,-151 -88,-221 -24,-70 -46,-124 -51,-120 -4,4 -4,0 -1,-8 3,-9 -3,-61 -14,-115 -11,-55 -22,-130 -25,-169 -4,-38 -9,-97 -12,-130 -3,-33 -5,-64 -4,-70 13,-230 24,-314 56,-455 14,-58 23,-116 20,-130 -3,-14 -2,-18 1,-10 7,17 65,-140 67,-182 0,-14 4,-25 7,-23 10,7 80,-161 74,-177 -4,-9 -2,-19 4,-23 7,-3 8,0 5,9 -22,56 44,-47 75,-118 2,-5 -2,-5 -9,-1 -9,5 -11,4 -6,-4 4,-6 12,-8 18,-5 7,5 9,1 5,-9 -3,-9 -1,-19 5,-23 7,-4 8,-3 4,4 -4,7 -5,12 -3,12 10,0 97,-142 92,-151 -4,-5 -11,-6 -17,-3 -7,4 -8,2 -4,-5 6,-8 12,-9 20,-2 9,8 23,-3 54,-40 23,-28 39,-56 35,-62 -3,-5 -1,-7 5,-4 5,4 29,-16 52,-43 40,-48 166,-164 238,-220 l 32,-25 15,-150 c 18,-178 54,-378 95,-530 16,-60 27,-111 25,-114 -3,-2 -5,1 -5,7 0,7 -7,12 -17,12 -15,0 -15,-1 0,-18 10,-10 17,-24 17,-30 0,-7 6,-12 13,-12 16,0 48,-95 40,-118 -3,-12 -2,-13 4,-5 6,9 13,2 22,-25 8,-20 29,-69 48,-109 19,-39 33,-75 30,-80 -2,-4 0,-19 5,-33 6,-18 11,-21 17,-12 6,9 12,3 21,-20 8,-18 17,-35 20,-38 20,-15 79,-123 74,-132 -4,-7 -3,-8 4,-4 10,6 27,-15 32,-39 1,-5 6,-9 10,-8 14,4 62,-66 54,-79 -4,-6 -3,-8 3,-5 11,7 149,-143 145,-158 -2,-5 -1,-7 3,-3 4,4 44,-26 89,-65 44,-40 98,-85 118,-101 21,-15 35,-33 31,-39 -3,-5 -2,-7 4,-4 12,7 148,-90 148,-106 0,-7 8,-11 16,-9 9,1 27,-8 40,-20 14,-13 29,-24 34,-26 6,-2 65,-35 132,-75 82,-48 118,-74 110,-80 -8,-6 -6,-7 5,-3 10,3 87,-29 182,-75 91,-43 171,-79 178,-79 9,0 9,-3 -2,-11 -13,-9 -13,-10 2,-5 9,3 72,-18 140,-45 97,-40 130,-49 158,-44 19,3 45,7 57,8 11,1 19,5 17,8 -6,10 105,51 118,43 7,-4 10,-4 6,1 -4,4 75,49 175,99 197,100 339,183 485,283 51,35 98,61 104,57 6,-4 8,-3 5,3 -4,6 45,51 107,101 138,111 268,239 360,355 38,47 73,84 79,80 6,-3 7,-1 3,5 -3,6 21,53 55,104 75,113 184,332 224,450 16,48 33,84 39,81 5,-3 6,-2 3,4 -3,5 9,70 28,144 39,157 80,409 95,593 10,122 12,130 38,149 52,40 214,203 279,280 36,42 70,74 75,70 7,-4 8,-1 3,6 -4,8 3,23 18,39 14,15 66,88 117,162 50,74 96,134 102,132 5,-1 7,2 3,8 -9,14 36,91 48,83 6,-3 7,-1 4,4 -4,6 18,60 48,121 91,184 154,396 175,586 10,98 5,321 -10,431 -27,197 -94,397 -200,602 -38,72 -67,134 -64,137 2,3 1,4 -3,1 -3,-3 -26,25 -51,63 -154,231 -424,494 -672,654 -233,151 -416,235 -767,353 -46,15 -80,31 -77,36 3,5 -1,6 -9,3 -19,-7 -210,70 -200,81 4,4 3,5 -3,2 -10,-6 -213,68 -224,82 -3,3 -11,6 -17,7 -39,3 -44,5 -38,14 3,5 0,7 -9,4 -8,-3 -49,6 -93,19 -43,13 -109,30 -148,37 -38,6 -77,14 -85,17 -30,10 -336,24 -405,17 z m 272,-445 c 11,-9 14,-10 9,-1 -5,9 8,12 56,12 35,0 58,-4 51,-8 -6,-4 12,-7 40,-7 29,-1 79,-7 112,-14 l 60,-13 -40,-15 c -22,-8 -93,-37 -159,-64 -65,-27 -123,-46 -129,-42 -5,3 -7,2 -4,-4 8,-12 -241,-129 -268,-125 -14,1 -16,0 -7,-7 11,-6 10,-10 -3,-15 -9,-3 -22,-3 -27,1 -6,3 -8,1 -5,-5 9,-13 -100,-75 -115,-66 -6,4 -8,3 -5,-2 8,-14 -100,-77 -116,-68 -6,4 -9,3 -4,-1 9,-11 -104,-87 -120,-80 -7,2 -15,-1 -19,-7 -5,-7 -2,-9 7,-4 8,4 3,-1 -11,-11 -203,-148 -275,-198 -282,-195 -5,1 -7,-2 -4,-7 8,-13 -19,-32 -36,-26 -8,3 -21,-2 -29,-12 -13,-16 -12,-17 4,-4 9,8 20,12 22,9 8,-8 -187,-173 -199,-170 -6,2 -8,0 -3,-4 10,-11 -33,-55 -47,-47 -6,3 -8,3 -4,-2 11,-11 -12,-36 -26,-28 -6,3 -8,3 -4,-2 4,-4 -21,-40 -55,-79 -35,-39 -85,-98 -112,-131 -27,-33 -53,-60 -59,-60 -6,-1 -10,-7 -8,-14 1,-7 -12,-34 -31,-59 -40,-56 -117,-195 -117,-211 0,-18 23,-13 63,14 20,14 43,23 50,19 6,-4 9,-3 4,1 -10,12 603,417 621,410 7,-2 10,-1 7,5 -3,5 77,58 177,118 253,151 335,195 349,186 8,-4 9,-3 5,4 -9,14 510,276 531,268 8,-3 12,-2 9,3 -3,4 27,23 67,41 39,18 101,46 137,62 75,34 347,143 466,186 l 80,29 100,-28 c 181,-51 472,-179 457,-202 -3,-6 -1,-7 5,-3 22,13 37,-6 17,-21 -11,-7 -14,-13 -9,-13 6,0 15,5 22,12 6,6 15,9 19,5 11,-11 -12,-29 -40,-30 -14,-1 -23,-5 -21,-9 2,-3 -10,-11 -28,-17 -24,-9 -34,-8 -41,1 -6,10 -8,9 -4,-3 4,-11 -9,-22 -45,-37 -28,-12 -56,-19 -62,-15 -6,3 -8,3 -4,-2 5,-4 -74,-49 -175,-100 -100,-50 -220,-113 -266,-138 -91,-51 -96,-53 -85,-34 4,6 4,9 0,5 -4,-3 -7,-9 -6,-13 2,-12 -200,-126 -212,-119 -7,4 -8,3 -4,-4 4,-6 -4,-16 -16,-23 -13,-7 -67,-41 -120,-76 -55,-36 -103,-61 -110,-57 -6,4 -8,3 -5,-3 9,-15 -92,-79 -118,-75 -15,2 -17,1 -6,-6 10,-7 -17,-31 -104,-91 -64,-45 -121,-78 -127,-75 -6,4 -8,3 -5,-3 9,-14 -80,-76 -95,-67 -6,4 -8,3 -5,-4 9,-14 -120,-105 -135,-96 -6,4 -8,3 -4,-4 3,-6 -8,-22 -26,-36 -23,-18 -35,-22 -40,-13 -7,11 -12,3 -9,-15 1,-9 -312,-251 -326,-251 -7,0 -11,-3 -10,-7 4,-13 -63,-61 -74,-54 -7,4 -9,3 -5,-4 8,-13 -79,-86 -94,-77 -6,4 -9,1 -8,-7 2,-7 -3,-12 -10,-10 -8,1 -11,-2 -8,-7 7,-11 -59,-62 -69,-53 -5,4 -5,2 -2,-4 7,-12 -75,-84 -101,-89 -9,-1 -16,-7 -15,-13 3,-12 -40,-53 -58,-55 -8,-2 -15,-7 -17,-12 -6,-22 -77,-85 -97,-86 -11,0 -15,-3 -9,-5 6,-3 -20,-35 -59,-72 -39,-37 -86,-85 -106,-107 -20,-21 -63,-69 -97,-105 -34,-36 -87,-94 -119,-130 -32,-36 -62,-64 -66,-62 -5,1 -8,-2 -7,-7 5,-15 -63,-92 -74,-85 -6,4 -8,2 -4,-4 3,-5 -23,-49 -58,-96 -37,-49 -64,-77 -63,-66 1,11 6,20 12,20 5,0 1,7 -9,15 -18,14 -19,20 -7,125 14,130 45,259 96,393 54,145 134,309 147,301 7,-4 8,-2 4,5 -9,13 57,132 156,279 84,126 80,128 -78,36 -22,-13 -44,-21 -48,-16 -4,4 -6,2 -4,-4 4,-16 -112,-105 -126,-97 -6,3 -8,3 -4,-2 4,-4 -34,-51 -85,-105 -151,-157 -254,-304 -358,-507 l -56,-112 -31,67 c -41,89 -78,188 -101,271 -15,54 -16,72 -7,89 7,13 16,19 21,15 4,-4 5,-2 1,5 -10,17 93,234 107,225 6,-3 7,-1 3,5 -3,6 15,46 41,89 59,99 78,124 88,115 5,-4 5,-2 1,5 -12,21 218,328 237,316 6,-3 7,-2 4,4 -9,14 233,284 247,276 6,-3 8,-2 3,2 -4,5 66,83 156,174 90,91 193,199 230,239 36,41 71,71 76,68 6,-4 15,2 20,13 9,16 7,19 -19,23 -16,3 -28,2 -25,0 2,-3 -34,-18 -80,-33 -46,-16 -119,-46 -162,-67 -43,-22 -84,-37 -92,-34 -8,2 -11,0 -8,-5 3,-5 -13,-20 -36,-33 -23,-13 -77,-47 -120,-77 -43,-29 -84,-50 -90,-46 -7,3 -9,3 -5,-2 4,-4 3,-14 -3,-22 -14,-16 -33,-18 -23,-1 4,7 3,8 -5,4 -6,-4 -9,-11 -6,-16 6,-10 -134,-126 -148,-122 -7,2 -9,0 -5,-4 11,-10 -12,-35 -26,-27 -6,3 -8,2 -3,-2 10,-12 -33,-56 -47,-48 -6,3 -8,2 -3,-2 8,-10 -62,-87 -73,-80 -4,2 -7,-2 -7,-9 0,-20 -136,-184 -148,-178 -5,3 -7,2 -3,-3 11,-11 -11,-47 -24,-39 -7,4 -8,3 -4,-5 9,-15 -32,-73 -46,-65 -7,4 -8,2 -4,-4 8,-14 -42,-92 -60,-92 -9,0 -11,11 -8,38 23,172 78,367 96,341 8,-11 9,-10 4,3 -6,21 33,120 45,112 5,-3 6,1 4,8 -12,30 213,347 236,333 5,-4 8,-3 7,2 -14,46 439,423 488,407 14,-4 15,-3 6,4 -15,10 31,42 218,149 138,79 218,119 375,186 324,138 597,210 855,226 138,8 176,7 197,-10 z m 1889,-826 c 19,-12 22,-18 12,-25 -10,-8 -9,-9 3,-5 40,13 284,-241 263,-274 -4,-7 -3,-9 4,-5 14,8 85,-112 78,-131 -3,-8 -2,-12 3,-9 12,8 64,-112 57,-130 -4,-10 -2,-12 6,-8 7,5 9,0 6,-14 -4,-12 -3,-20 1,-17 12,7 55,-163 56,-217 0,-27 3,-48 6,-48 4,0 10,-45 14,-101 8,-114 -3,-279 -16,-258 -6,9 -7,2 -3,-18 11,-55 -57,-320 -78,-307 -7,5 -8,2 -4,-5 9,-14 -31,-128 -47,-138 -6,-4 -8,0 -4,10 3,9 2,17 -2,19 -16,6 -81,130 -75,141 4,7 4,9 -1,5 -10,-10 -96,113 -88,126 3,5 1,6 -4,3 -10,-7 -28,20 -25,35 1,5 -2,7 -7,5 -4,-1 -39,31 -76,71 -38,40 -101,102 -141,137 -40,35 -69,67 -66,71 4,4 2,5 -3,1 -11,-6 -141,91 -138,103 1,3 -3,7 -10,7 -7,0 -55,29 -107,64 -52,36 -125,82 -162,104 -37,21 -64,43 -61,48 3,6 1,7 -6,3 -14,-9 -132,55 -124,68 3,5 1,6 -5,2 -13,-8 -63,14 -56,25 2,4 -4,7 -13,7 -26,-1 -124,48 -115,57 4,5 2,5 -5,2 -16,-10 -44,3 -36,16 3,5 1,7 -5,3 -12,-7 -122,35 -122,47 0,10 18,9 25,-3 3,-5 14,-10 23,-10 11,0 6,6 -12,15 -22,12 -32,12 -42,4 -8,-6 -14,-7 -14,-3 0,21 1004,529 1027,520 8,-3 12,-2 8,3 -14,23 48,26 81,4 z M 5708,6135 c 71,-26 99,-41 90,-47 -9,-6 -6,-7 8,-3 39,10 434,-173 434,-202 0,-13 3,-14 8,-6 6,10 12,10 28,-2 19,-15 19,-15 -1,-9 -16,5 -17,4 -5,-4 8,-6 18,-9 22,-6 17,11 241,-133 231,-149 -3,-5 -1,-7 4,-4 18,11 208,-137 197,-154 -3,-5 0,-8 8,-7 7,2 12,-3 10,-10 -1,-8 2,-11 7,-8 12,8 72,-55 64,-67 -3,-6 -2,-7 4,-4 18,12 158,-156 149,-179 -3,-8 0,-13 6,-11 6,1 31,-36 56,-82 36,-67 42,-85 31,-92 -12,-8 -6,-13 12,-11 10,2 40,-113 46,-174 5,-47 3,-58 -21,-89 -15,-19 -32,-32 -38,-29 -7,5 -8,2 -3,-5 9,-16 -44,-73 -59,-64 -6,3 -8,3 -4,-2 9,-9 -21,-46 -81,-100 l -43,-39 -31,34 c -241,274 -508,515 -804,728 -61,44 -109,83 -105,88 4,4 1,4 -6,0 -7,-5 -21,-2 -30,6 -9,8 -56,38 -105,67 -51,31 -85,57 -81,63 4,7 2,8 -4,4 -7,-4 -69,24 -139,62 -122,65 -281,141 -371,177 -24,10 -39,22 -35,28 3,6 1,7 -6,3 -6,-4 -32,0 -56,10 l -45,17 105,74 c 61,43 110,71 116,67 7,-4 9,-3 5,4 -4,6 46,48 121,100 l 127,90 40,-12 c 23,-7 87,-30 144,-51 z m -850,-587 c 92,-35 129,-54 120,-60 -9,-6 -6,-7 8,-3 35,9 318,-119 530,-241 55,-31 104,-61 109,-67 7,-7 6,-7 -4,-2 -10,5 -12,4 -7,-4 4,-6 11,-9 16,-6 17,11 163,-82 153,-98 -3,-6 -1,-7 6,-3 18,11 319,-215 313,-236 -1,-5 2,-7 7,-4 13,8 112,-84 104,-96 -4,-7 -1,-8 6,-3 15,9 73,-49 62,-62 -3,-4 -2,-5 3,0 12,9 67,-43 59,-56 -3,-6 -1,-7 4,-4 15,9 116,-100 107,-116 -4,-6 -3,-9 1,-4 11,9 45,-21 41,-36 -2,-7 -1,-8 2,-4 2,5 13,1 23,-9 10,-9 16,-21 12,-27 -3,-5 -1,-7 4,-4 13,8 35,-16 31,-34 -2,-7 3,-13 10,-14 7,0 28,-19 46,-43 32,-40 34,-46 30,-105 -15,-214 -78,-440 -167,-599 -86,-153 -260,-363 -280,-336 -6,10 -8,9 -4,-4 3,-9 -2,-23 -12,-32 -17,-15 -19,-15 -32,0 -8,10 -57,56 -109,102 -52,47 -94,89 -92,94 1,4 -2,7 -7,6 -5,-2 -42,22 -81,52 -89,67 -110,84 -91,74 9,-5 12,-3 7,5 -4,6 -12,9 -17,5 -6,-3 -38,12 -72,35 -34,22 -108,62 -164,89 -57,27 -99,53 -95,57 4,5 0,6 -9,2 -9,-3 -52,5 -94,18 -184,57 -411,53 -620,-10 -26,-7 -52,-12 -58,-11 -7,2 -9,1 -4,-1 4,-3 -34,-25 -84,-49 -50,-24 -96,-41 -102,-37 -7,3 -9,2 -4,-2 4,-5 -30,-33 -75,-62 -45,-30 -99,-68 -120,-84 -21,-17 -42,-28 -47,-25 -5,4 -12,2 -16,-4 -4,-6 -11,-7 -17,-4 -7,4 -8,2 -4,-5 6,-9 11,-9 24,0 10,7 3,-2 -15,-19 -18,-18 -38,-31 -45,-30 -7,2 -12,-2 -11,-9 3,-14 -90,-98 -109,-98 -7,-1 -12,-6 -11,-11 1,-6 -22,-34 -50,-62 l -52,-52 -83,81 c -45,44 -80,85 -76,90 3,5 0,8 -7,7 -18,-4 -144,167 -193,262 -85,167 -128,311 -151,508 -17,141 -21,125 68,251 104,147 189,251 200,244 5,-3 7,-2 4,4 -9,14 104,147 246,291 157,159 383,355 399,346 6,-4 8,-3 5,4 -9,13 92,94 106,85 5,-3 7,-1 4,4 -7,12 167,146 189,146 7,0 11,4 8,8 -6,11 31,30 41,21 3,-4 5,-2 3,5 -3,10 28,42 42,43 3,0 65,-23 138,-52 z"
         id="path2" /></g></g></svg>
